<svg xmlns="http://www.w3.org/2000/svg" viewBox="0 0 48 48">
  <path fill="#1976D2" d="M45 35c0 2.209-1.791 4-4 4H7c-2.209 0-4-1.791-4-4V13c0-2.209 1.791-4 4-4h34c2.209 0 4 1.791 4 4v22z"/>
  <path fill="#FFF" d="M22.631 20.7l2.289 5.024h-4.571L22.631 20.7zm10.727 0l2.288 5.024h-4.571L33.358 20.7zM40 24.749c0 .416-.046.833-.137 1.241h-2.276l-.365-.833h-4.058l-.365.833h-2.743c-.183 0-.365 0-.548-.045-.548-.139-1.005-.509-1.188-1.058-.137-.37-.183-.787-.183-1.25v-.37h-1.736l-.365-.833h-4.058l-.365.833h-2.743c-.183 0-.365 0-.548-.045-.548-.139-1.005-.509-1.188-1.058-.137-.37-.183-.787-.183-1.25 0-.463.046-.879.183-1.25.137-.37.32-.648.548-.879.274-.278.594-.463.959-.556.32-.093.685-.139 1.142-.139h1.782v.879h-1.736c-.274 0-.457.045-.639.093-.183.092-.32.185-.457.37-.137.139-.228.37-.274.556-.046.231-.091.463-.091.695 0 .278.045.509.091.741.091.231.183.37.365.509.137.139.32.231.503.278.183.045.411.092.639.092h.822l2.606-5.67h2.789l3.109 6.78v-6.78h2.835l2.332 4.98.411.926v-5.906h1.873v.879h-1.736c-.274 0-.457.045-.639.093-.183.092-.32.185-.457.37-.137.139-.228.37-.274.556-.046.231-.091.463-.091.695 0 .278.045.509.091.741.091.231.183.37.365.509.137.139.32.231.503.278.183.045.411.092.639.092h.822l2.606-5.67h2.789l3.109 6.78v-6.78H40v7.503z"/>
</svg> 