<svg xmlns="http://www.w3.org/2000/svg" viewBox="0 0 48 48">
  <path fill="#1565C0" d="M45 35c0 2.209-1.791 4-4 4H7c-2.209 0-4-1.791-4-4V13c0-2.209 1.791-4 4-4h34c2.209 0 4 1.791 4 4v22z"/>
  <path fill="#FFF" d="M24 15c-4.971 0-9 4.029-9 9s4.029 9 9 9 9-4.029 9-9-4.029-9-9-9zm-5.5 9c0-3.038 2.462-5.5 5.5-5.5 1.41 0 2.694.532 3.669 1.406.974.874 1.631 2.078 1.789 3.428h-2.168c-.174-.671-.537-1.264-1.054-1.729-.516-.465-1.166-.75-1.875-.75-1.933 0-3.5 1.567-3.5 3.5s1.567 3.5 3.5 3.5c.709 0 1.359-.285 1.875-.75.517-.465.88-1.058 1.054-1.729h2.168c-.158 1.35-.815 2.554-1.789 3.428-.975.874-2.259 1.406-3.669 1.406-3.038 0-5.5-2.462-5.5-5.5z"/>
</svg> 