<svg xmlns="http://www.w3.org/2000/svg" viewBox="0 0 48 48">
  <path fill="#FF6B6B" d="M45 35c0 2.209-1.791 4-4 4H7c-2.209 0-4-1.791-4-4V13c0-2.209 1.791-4 4-4h34c2.209 0 4 1.791 4 4v22z"/>
  <path fill="#FFF" d="M28.004 27c0-2.211-1.789-4-4-4s-4 1.789-4 4 1.789 4 4 4 4-1.789 4-4zm-4-7c3.859 0 7 3.141 7 7s-3.141 7-7 7-7-3.141-7-7 3.141-7 7-7zM40 27h-3v-7h3v7zm-7.666-7H29.5v7h2.834c1.666 0 2.666-1.834 2.666-3.5S34 20 32.334 20zM17 20h-3v7h3v-7zm-7.334 0H6.5v7h3.166C11.334 27 12 25.166 12 23.5S11.334 20 9.666 20z"/>
</svg> 