<svg xmlns="http://www.w3.org/2000/svg" viewBox="0 0 48 48">
  <path fill="#1976D2" d="M45 35c0 2.209-1.791 4-4 4H7c-2.209 0-4-1.791-4-4V13c0-2.209 1.791-4 4-4h34c2.209 0 4 1.791 4 4v22z"/>
  <path fill="#FFF" d="M33.914 24.5c0-2.481-2.019-4.5-4.5-4.5h-7.828v9H29.414c2.481 0 4.5-2.019 4.5-4.5zM15.586 20v9h2.828v-9h-2.828zm-4.5 0v9H13.914v-9h-2.828z"/>
  <path fill="#F44336" d="M33.914 24.5c0-2.481-2.019-4.5-4.5-4.5h-7.828v9H29.414c2.481 0 4.5-2.019 4.5-4.5z"/>
  <path fill="#FFC107" d="M15.586 20v9h2.828v-9h-2.828z"/>
  <path fill="#4CAF50" d="M11.086 20v9H13.914v-9h-2.828z"/>
</svg> 