<svg xmlns="http://www.w3.org/2000/svg" viewBox="0 0 48 48">
  <path fill="#FF5F00" d="M24 34.4868C21.715 32.5938 20.285 29.8078 20.285 26.7148C20.285 23.6218 21.715 20.8358 24 18.9428C26.285 20.8358 27.715 23.6218 27.715 26.7148C27.715 29.8078 26.285 32.5938 24 34.4868Z"/>
  <path fill="#EB001B" d="M24 18.9428C21.715 20.8358 20.285 23.6218 20.285 26.7148C20.285 29.8078 21.715 32.5938 24 34.4868C19.143 31.8008 16 27.5938 16 22.7148C16 17.8358 19.143 13.6288 24 10.9428C28.857 13.6288 32 17.8358 32 22.7148C32 27.5938 28.857 31.8008 24 34.4868"/>
  <path fill="#F79E1B" d="M24 18.9428C26.285 20.8358 27.715 23.6218 27.715 26.7148C27.715 29.8078 26.285 32.5938 24 34.4868C28.857 31.8008 32 27.5938 32 22.7148C32 17.8358 28.857 13.6288 24 10.9428"/>
</svg> 