<svg xmlns="http://www.w3.org/2000/svg" viewBox="0 0 48 48">
  <path fill="#1976D2" d="M45 35c0 2.209-1.791 4-4 4H7c-2.209 0-4-1.791-4-4V13c0-2.209 1.791-4 4-4h34c2.209 0 4 1.791 4 4v22z"/>
  <path fill="#FFF" d="M11.477 20h4.045L14.477 29h-4.045l1.045-9zm6 0h4.045L20.477 29h-4.045l1.045-9zm6 0h4.045L26.477 29h-4.045l1.045-9zm6 0h4.045L32.477 29h-4.045l1.045-9z"/>
  <path fill="#FF9800" d="M11.477 20h4.045L14.477 29h-4.045l1.045-9z"/>
  <path fill="#F44336" d="M17.477 20h4.045L20.477 29h-4.045l1.045-9z"/>
  <path fill="#4CAF50" d="M23.477 20h4.045L26.477 29h-4.045l1.045-9z"/>
</svg> 