<svg xmlns="http://www.w3.org/2000/svg" viewBox="0 0 48 48">
  <path fill="#1565C0" d="M45 35c0 2.209-1.791 4-4 4H7c-2.209 0-4-1.791-4-4V13c0-2.209 1.791-4 4-4h34c2.209 0 4 1.791 4 4v22z"/>
  <path fill="#FFF" d="M15.186 19l-2.626 7.832c0 0-.667-3.313-.733-3.729-1.495-3.411-3.701-3.221-3.701-3.221L10.726 30v-.002h3.161L18.258 19H15.186zM17.689 30L20.56 19h2.799l-2.87 11H17.689zM24.233 19h3.058l2.266 11h-2.663l-.308-1.706h-3.726l-.551 1.706h-3.086L22.72 19H24.233zM24.465 24.987l-.44 1.449h2.219l-.44-1.449L25.16 21.5zM30.931 19l-.192 11h-2.912l.192-11z"/>
</svg> 